<!-- <svg xmlns="http://www.w3.org/2000/svg" width="24" height="24" viewBox="0 0 24 24"><path d="M4 6h16v2H4zm0 5h16v2H4zm0 5h16v2H4z"/></svg> -->

<!-- <svg xmlns="http://www.w3.org/2000/svg" width="24" height="24" viewBox="0 0 24 24" style="fill: #fff;transform: ;msFilter:;"><path d="M4 6h16v2H4zm0 5h16v2H4zm0 5h16v2H4z"></path></svg> -->

<svg xmlns="http://www.w3.org/2000/svg" width="16" height="16" fill="#fff" class="bi bi-list" viewBox="0 0 16 16">
  <path fill-rule="evenodd" d="M2.5 12a.5.5 0 0 1 .5-.5h10a.5.5 0 0 1 0 1H3a.5.5 0 0 1-.5-.5zm0-4a.5.5 0 0 1 .5-.5h10a.5.5 0 0 1 0 1H3a.5.5 0 0 1-.5-.5zm0-4a.5.5 0 0 1 .5-.5h10a.5.5 0 0 1 0 1H3a.5.5 0 0 1-.5-.5z"/>
</svg>